<svg xmlns="http://www.w3.org/2000/svg" xmlns:xlink="http://www.w3.org/1999/xlink" data-name="Layer 1" viewBox="0 0 512 512" id="graph"><defs><linearGradient id="a" x1="256" x2="256" y1="33.713" y2="480.032" gradientUnits="userSpaceOnUse"><stop offset="0" stop-color="#00efd1"></stop><stop offset="1" stop-color="#00acea"></stop></linearGradient><linearGradient id="b" x1="201" x2="201" y1="33.713" y2="480.032" xlink:href="#a"></linearGradient><linearGradient id="c" x1="86" x2="86" y1="33.713" y2="480.032" xlink:href="#a"></linearGradient><linearGradient id="d" x1="316" x2="316" y1="33.713" y2="480.032" xlink:href="#a"></linearGradient><linearGradient id="e" x1="432" x2="432" y1="33.713" y2="480.032" xlink:href="#a"></linearGradient></defs><path fill="url(#a)" d="M432.131,59.166a41.968,41.968,0,0,0-36.685,62.4L350.1,159.569a41.941,41.941,0,0,0-68.212,2.3l-51.218-33.007c.107-1.224.173-2.46.173-3.712a41.994,41.994,0,1,0-78.462,20.78l-52.48,51.3a42.116,42.116,0,1,0,9.713,7.287l50.2-49.071a41.945,41.945,0,0,0,67.837-14.252l49.034,31.6a42,42,0,1,0,79.383-2.563l46.669-39.113a41.982,41.982,0,1,0,29.395-71.945ZM79.869,264.118a29.994,29.994,0,1,1,29.993-29.993A30.027,30.027,0,0,1,79.869,264.118ZM188.849,155.14a29.994,29.994,0,1,1,29.993-29.994A30.028,30.028,0,0,1,188.849,155.14ZM316.82,215.131a29.993,29.993,0,1,1,29.993-29.993A30.027,30.027,0,0,1,316.82,215.131Zm115.311-83.979a29.993,29.993,0,1,1,29.993-29.993A30.027,30.027,0,0,1,432.131,131.152Z"></path><path fill="url(#b)" d="M238,243a6,6,0,0,0-6-6H170a6,6,0,0,0-6,6V447a6,6,0,0,0,6,6h62a6,6,0,0,0,6-6ZM226,441H176V249h50Z"></path><path fill="url(#c)" d="M123,336a6,6,0,0,0-6-6H55a6,6,0,0,0-6,6V447a6,6,0,0,0,6,6h62a6,6,0,0,0,6-6ZM110,441H61V342h49Z"></path><path fill="url(#d)" d="M353,301a6,6,0,0,0-6-6H285a6,6,0,0,0-6,6V447a6,6,0,0,0,6,6h62a6,6,0,0,0,6-6ZM341,441H291V307h50Z"></path><path fill="url(#e)" d="M469,243a6,6,0,0,0-6-6H401a6,6,0,0,0-6,6V447a6,6,0,0,0,6,6h62a6,6,0,0,0,6-6ZM456,441H407V249h49Z"></path></svg>